
<svg width="64" height="64" viewBox="0 0 64 64" fill="none" xmlns="http://www.w3.org/2000/svg">
<rect width="64" height="64" rx="12" fill="#1E293B"/>
<path d="M28.5 37.5C27.56 37.5 26.6625 37.1437 25.9875 36.4687L22.425 32.9062C21.075 31.5562 21.075 29.4437 22.425 28.0937C23.775 26.7437 25.8875 26.7437 27.2375 28.0937L29.9062 30.7625L36.7625 23.9062C38.1125 22.5562 40.225 22.5562 41.575 23.9062C42.925 25.2562 42.925 27.3687 41.575 28.7187L32.8125 37.4812C32.125 38.1687 31.25 38.5 30.3125 38.5C30.2063 38.5 30.1 38.5 29.9938 38.4938C29.4563 38.4563 28.95 38.25 28.5375 37.8375L28.5 37.5Z" fill="#38BDF8"/>
<path d="M24 20H20C15.5875 20 12 23.5875 12 28V32" stroke="#38BDF8" stroke-width="3" stroke-linecap="round" stroke-linejoin="round"/>
<path d="M40 44H44C48.4125 44 52 40.4125 52 36V32" stroke="#38BDF8" stroke-width="3" stroke-linecap="round" stroke-linejoin="round"/>
</svg>
